<svg xmlns="http://www.w3.org/2000/svg" xmlns:xlink="http://www.w3.org/1999/xlink" width="0" height="0" style="position:absolute">
<symbol id="icon-facebook" viewBox="0 0 30 30">
        <path d="M22 0h-4.8c-2.9 0-6 1.2-6 5.3v4.4H7.9v5.2h3.4V30h6.2V14.8h4.1l.4-5.2h-4.6v-3c0-1.6 1.7-1.5 1.8-1.5H22V0z"/>
</symbol>
<symbol id="icon-linkedin" viewBox="0 0 30 30">
        <path d="M3.2.3C1.3.3 0 1.6 0 3.4c0 1.7 1.3 3.1 3.2 3.1 2 0 3.3-1.4 3.3-3.1C6.5 1.6 5.2.3 3.2.3zm-3 29.4h6.1v-21H.2v21zM22.9 9c-2 0-4-.4-6.1 2.9h-.1l-.1-3.2h-5.4c.1 1.7.1 4.3.1 6.8v14.2h6.1V17.6c0-.6.1-1.1.2-1.5.4-1.1 1.4-2.3 3.1-2.3 2.2 0 3.1 1.7 3.1 4.3v11.7H30V17.3c0-5.9-3-8.3-7.1-8.3z"/>
</symbol>
<symbol id="icon-twitter" viewBox="0 0 30 30">
        <path d="M30 5.7c-1.1.5-2.3.8-3.5 1 1.3-.8 2.2-2 2.7-3.4-1.2.7-2.5 1.2-3.9 1.5-1.1-1.2-2.7-1.9-4.5-1.9-3.4 0-6.2 2.8-6.2 6.2 0 .5.1 1 .2 1.4-5.1-.4-9.7-2.8-12.7-6.6-.5.9-.8 2-.8 3.1 0 2.1 1.1 4 2.7 5.1-1 0-2-.3-2.8-.8v.1c0 3 2.1 5.5 4.9 6-.5.1-1.1.2-1.6.2-.4 0-.8 0-1.2-.1.8 2.4 3.1 4.2 5.7 4.3-2.1 1.7-4.8 2.6-7.6 2.6-.5 0-1 0-1.5-.1 2.7 1.7 6 2.8 9.4 2.8 11.3 0 17.5-9.4 17.5-17.5v-.8c1.3-.8 2.4-1.9 3.2-3.1z"/>
</symbol>
<symbol id="icon-youtube" viewBox="0 0 30 30">
        <path d="M29.7 8.8s-.1-4.4-4.6-4.5c-4.5-.2-9.6-.3-9.6-.3h-.9s-5.2.1-9.7.3C.3 4.5.3 8.6.3 8.6s-.6 6.6-.1 11.5c.4 3.7 1.2 5.2 5.5 5.4 4.3.2 8.8.5 8.8.5h.9s4.5-.2 8.8-.4c4.3-.2 5.1-1.5 5.5-5.2.6-5 0-11.6 0-11.6zM12 19.2v-8.5l8.1 4.3-8.1 4.2"/>
</symbol>
<symbol id="icon-instagram" viewBox="0 0 30 30">
        <path d="M 21.27,7.24
           C 21.27,6.41 21.91,5.74 22.71,5.74
             23.50,5.74 24.14,6.42 24.14,7.24
             24.14,8.06 23.50,8.72 22.72,8.73
             21.92,8.74 21.27,8.07 21.27,7.24 Z
           M 15.08,21.27
           C 11.29,21.27 8.26,18.25 8.26,14.47
             8.27,10.80 11.34,7.79 15.10,7.79
             18.87,7.79 21.92,10.82 21.91,14.56
             21.91,18.26 18.84,21.27 15.08,21.27 Z
           M 15.08,19.10
           C 17.65,19.10 19.75,17.06 19.75,14.54
             19.75,12.02 17.67,9.96 15.10,9.96
             12.53,9.96 10.43,12.01 10.43,14.52
             10.43,17.04 12.51,19.10 15.08,19.10 Z
           M 29.59,15.06
           C 29.59,17.16 29.60,19.25 29.59,21.36
             29.58,24.40 28.16,26.66 25.63,28.25
             24.15,29.18 22.50,29.59 20.75,29.59
             16.93,29.59 13.12,29.61 9.30,29.58
             6.64,29.57 4.36,28.63 2.55,26.66
             1.43,25.44 0.76,24.01 0.57,22.35
             0.53,22.00 0.52,21.65 0.52,21.30
             0.52,17.12 0.52,12.94 0.52,8.77
             0.54,5.71 1.96,3.46 4.49,1.86
             5.98,0.93 7.63,0.53 9.39,0.53
             13.20,0.53 17.01,0.51 20.82,0.53
             23.48,0.55 25.78,1.49 27.59,3.47
             28.69,4.69 29.36,6.12 29.54,7.76
             29.62,8.41 29.58,9.05 29.59,9.69
             29.60,11.48 29.59,13.27 29.59,15.06 Z
           M 2.70,15.06
           C 2.70,17.21 2.69,19.35 2.70,21.50
             2.70,22.98 3.24,24.25 4.25,25.31
             5.60,26.72 7.29,27.40 9.23,27.42
             13.08,27.44 16.92,27.42 20.77,27.42
             22.01,27.42 23.20,27.15 24.28,26.53
             26.29,25.38 27.43,23.68 27.43,21.30
             27.43,17.07 27.43,12.84 27.43,8.61
             27.43,7.15 26.89,5.88 25.89,4.83
             24.55,3.42 22.86,2.72 20.92,2.71
             17.03,2.68 13.15,2.70 9.26,2.70
             8.04,2.70 6.90,2.98 5.84,3.58
             3.83,4.74 2.69,6.44 2.70,8.82
             2.70,10.90 2.70,12.98 2.70,15.06 Z" />
</symbol>
</svg>
